# xmcd
#
# Track frame offsets: 
#        150
#        18997
#        42095
#        61215
#        78122
#        93862
#        109782
#        136515
#        152372
#        170957
#        193362
#        212210
#
# Disc length: 3063 seconds
#
# Revision: 38
# Processed by: cddbd v1.5.2PL0 Copyright (c) Steve Scherf et al.
# Submitted via: ExactAudioCopyFreeDBPlugin 1.0
#
DISCID=940bf50c
DTITLE=Jonny Lang - Lie To Me
DYEAR=1997
DGENRE=Blues/Rock
TTITLE0=Lie To Me
TTITLE1=Darker Side
TTITLE2=Good Morning Little School Girl
TTITLE3=Still Wonder
TTITLE4=Matchbox
TTITLE5=Back For A Taste Of Your Love
TTITLE6=A Quitter Never Wins
TTITLE7=Hit The Ground Running
TTITLE8=Rack 'em Up
TTITLE9=When I Come To You
TTITLE10=There's Gotta Be A Change
TTITLE11=Missing Your Love
EXTD=YEAR: 1997
EXTT0=
EXTT1=
EXTT2=
EXTT3=
EXTT4=
EXTT5=
EXTT6=
EXTT7=
EXTT8=
EXTT9=
EXTT10=
EXTT11=
PLAYORDER=
